<svg width="193" height="38" viewBox="0 0 193 38" fill="none" xmlns="http://www.w3.org/2000/svg">
<path d="M24.6158 12.5149C24.4145 11.7692 24.1186 11.1122 23.728 10.544C23.3374 9.96402 22.858 9.47277 22.2898 9.07031C21.7216 8.66785 21.0705 8.366 20.3366 8.16477C19.6027 7.9517 18.7978 7.84517 17.9219 7.84517C16.1581 7.84517 14.6312 8.27131 13.3409 9.12358C12.0625 9.97585 11.0741 11.2187 10.3757 12.8523C9.67732 14.474 9.32812 16.4448 9.32812 18.7649C9.32812 21.0968 9.66548 23.0855 10.3402 24.7308C11.0149 26.3762 11.9915 27.6309 13.2699 28.495C14.5483 29.3591 16.099 29.7912 17.9219 29.7912C19.5317 29.7912 20.893 29.5308 22.0057 29.0099C23.1302 28.4773 23.9825 27.7256 24.5625 26.755C25.1425 25.7843 25.4325 24.642 25.4325 23.3281L27.0661 23.5234H18.2237V17.1136H33.902V21.9254C33.902 25.1806 33.2095 27.9683 31.8246 30.2884C30.4515 32.6084 28.5575 34.3899 26.1428 35.6328C23.7398 36.8757 20.9759 37.4972 17.8509 37.4972C14.3826 37.4972 11.3345 36.7455 8.70668 35.2422C6.07884 33.7389 4.03101 31.5964 2.56321 28.8146C1.09541 26.0211 0.361506 22.7067 0.361506 18.8714C0.361506 15.8885 0.805398 13.2429 1.69318 10.9347C2.58097 8.61458 3.81795 6.64962 5.40412 5.03977C7.00213 3.42992 8.84872 2.2107 10.9439 1.3821C13.0509 0.553502 15.3177 0.139203 17.7443 0.139203C19.8513 0.139203 21.8104 0.44105 23.6214 1.04474C25.4444 1.64844 27.0542 2.50071 28.451 3.60156C29.8596 4.70241 31.0019 6.01042 31.8778 7.52557C32.7538 9.04072 33.2983 10.7038 33.5114 12.5149H24.6158ZM39.0822 37V0.636363H64.4373V7.77415H47.8713V15.2315H63.1412V22.3871H47.8713V29.8622H64.4373V37H39.0822ZM69.9416 37V0.636363H94.764V7.77415H78.7306V15.2315H93.1838V22.3871H78.7306V37H69.9416ZM99.1896 37V0.636363H124.545V7.77415H107.979V15.2315H123.249V22.3871H107.979V29.8622H124.545V37H99.1896ZM149.705 11.5384C149.586 10.2363 149.059 9.22419 148.124 8.50213C147.201 7.76823 145.881 7.40128 144.165 7.40128C143.028 7.40128 142.081 7.54924 141.324 7.84517C140.566 8.1411 139.998 8.54948 139.619 9.07031C139.241 9.57931 139.045 10.1652 139.033 10.8281C139.01 11.3726 139.116 11.852 139.353 12.2663C139.602 12.6806 139.957 13.0476 140.418 13.3672C140.892 13.675 141.46 13.9472 142.123 14.1839C142.786 14.4207 143.531 14.6278 144.36 14.8054L147.485 15.5156C149.284 15.9062 150.871 16.4271 152.244 17.0781C153.629 17.7292 154.789 18.5045 155.724 19.4041C156.671 20.3037 157.387 21.3395 157.872 22.5114C158.357 23.6832 158.606 24.9972 158.618 26.4531C158.606 28.7495 158.026 30.7204 156.878 32.3658C155.73 34.0111 154.078 35.2718 151.924 36.1477C149.781 37.0237 147.195 37.4616 144.165 37.4616C141.123 37.4616 138.471 37.0059 136.21 36.0945C133.949 35.183 132.192 33.7981 130.937 31.9396C129.682 30.0812 129.037 27.7315 129.001 24.8906H137.418C137.489 26.0625 137.802 27.0391 138.359 27.8203C138.915 28.6016 139.679 29.1934 140.649 29.5959C141.632 29.9983 142.768 30.1996 144.058 30.1996C145.242 30.1996 146.248 30.0398 147.077 29.7202C147.917 29.4006 148.562 28.9567 149.012 28.3885C149.462 27.8203 149.693 27.1693 149.705 26.4354C149.693 25.7488 149.48 25.1629 149.065 24.6776C148.651 24.1804 148.012 23.7543 147.148 23.3991C146.295 23.0322 145.206 22.6948 143.881 22.3871L140.081 21.4993C136.932 20.7772 134.452 19.6113 132.641 18.0014C130.83 16.3797 129.931 14.1899 129.942 11.4318C129.931 9.18276 130.534 7.21188 131.754 5.51918C132.973 3.82647 134.66 2.50663 136.814 1.55966C138.968 0.612689 141.424 0.139203 144.183 0.139203C147 0.139203 149.444 0.618606 151.516 1.57741C153.599 2.52438 155.215 3.85606 156.363 5.57244C157.511 7.28883 158.097 9.27746 158.121 11.5384H149.705ZM161.867 7.77415V0.636363H192.602V7.77415H181.576V37H172.911V7.77415H161.867Z" fill="#556686"/>
</svg>
