<svg width="30" height="29" viewBox="0 0 30 29" fill="none" xmlns="http://www.w3.org/2000/svg">
<path fill-rule="evenodd" clip-rule="evenodd" d="M23.1039 23.913L23.1048 23.9109L23.1265 23.8584L26.875 5.5895V5.53016C26.875 5.07498 26.701 4.6776 26.3224 4.43925C25.991 4.23062 25.6101 4.21576 25.3429 4.23536C25.0604 4.25609 24.794 4.32426 24.6096 4.381C24.5147 4.41019 24.4353 4.43832 24.3785 4.45959C24.35 4.47027 24.3269 4.47933 24.3101 4.48608L24.2936 4.4928L3.39385 12.4182L3.3881 12.4202C3.37681 12.4241 3.36188 12.4295 3.34385 12.4363C3.30791 12.4498 3.25898 12.4692 3.20151 12.4944C3.08866 12.5438 2.93274 12.6201 2.77461 12.7248C2.50604 12.9026 1.99465 13.3235 2.081 13.9907C2.15253 14.5434 2.54666 14.8945 2.81237 15.0762C2.95481 15.1736 3.09107 15.2439 3.19086 15.2898C3.24142 15.3131 3.28436 15.3309 3.31635 15.3435C3.33238 15.3498 3.34579 15.3548 3.35617 15.3586L3.36945 15.3634L3.37794 15.3665L7.03449 16.5564C7.02215 16.7782 7.0449 17.0043 7.10574 17.2274L8.93735 23.9438C9.15452 24.7402 9.8998 25.2949 10.7518 25.2943C11.5154 25.2938 12.1927 24.8472 12.4804 24.1809L15.34 21.2252L20.2513 24.865L20.3211 24.8945C20.7673 25.0827 21.1842 25.1423 21.5653 25.092C21.946 25.0417 22.2484 24.8875 22.4756 24.7117C22.6992 24.5388 22.8524 24.3437 22.9488 24.1968C22.9977 24.1221 23.0342 24.0565 23.0596 24.0071C23.0723 23.9823 23.0823 23.9613 23.0898 23.945L23.0992 23.924L23.1026 23.9162L23.1039 23.913ZM8.91874 16.7654C8.87711 16.6128 8.94246 16.4516 9.08032 16.367L21.4828 8.75339C21.4828 8.75339 22.2123 8.32528 22.1863 8.75339C22.1863 8.75339 22.3164 8.82899 21.9255 9.18149C21.5548 9.51629 13.0859 17.4201 12.229 18.2198C12.1796 18.266 12.15 18.319 12.1326 18.3833L10.7503 23.4818L8.91874 16.7654Z" fill="#323B48"/>
</svg>
