<svg width="29" height="29" viewBox="0 0 29 29" fill="none" xmlns="http://www.w3.org/2000/svg">
<path d="M14.5505 2.91699C17.6401 2.91699 20.5321 4.11394 22.7097 6.28125C24.8867 8.44818 26.0837 11.3316 26.0837 14.3994C26.0836 20.7246 20.9055 25.875 14.5505 25.875H14.5446C12.6139 25.875 10.7173 25.3908 9.03292 24.4785C8.92141 24.4181 8.79039 24.4015 8.66769 24.4336L3.12765 25.8799L4.60812 20.5107C4.64359 20.3817 4.62625 20.2438 4.55929 20.1279C3.54926 18.384 3.01758 16.4062 3.01827 14.3936C3.01827 8.06822 8.19556 2.9171 14.5505 2.91699ZM10.1394 8.1582C9.81572 8.15822 9.33912 8.27697 8.9421 8.70508C8.92716 8.72118 8.91002 8.73891 8.88937 8.76074C8.53956 9.13044 7.72042 9.99955 7.72042 11.6328C7.72043 12.4963 8.03088 13.3178 8.34151 13.9316C8.65561 14.5523 8.99229 15.0036 9.08663 15.1299L9.09347 15.1387C9.09469 15.1404 9.09875 15.1454 9.10616 15.1562C9.11575 15.1702 9.12754 15.1887 9.14327 15.2119C9.531 15.785 11.5404 18.7721 14.6306 19.9873C15.8352 20.4615 16.6332 20.6881 17.2116 20.7852C17.8085 20.8853 18.1608 20.8441 18.446 20.8096L18.5964 20.793C18.9987 20.7553 19.5385 20.5197 19.989 20.2295C20.4329 19.9435 20.9342 19.5131 21.1237 18.9902L21.1247 18.9863C21.2676 18.5829 21.3409 18.2051 21.3669 17.9014C21.3799 17.7501 21.3823 17.6093 21.3728 17.4883C21.3653 17.3938 21.3453 17.2285 21.2624 17.0889H21.2634C21.1705 16.9324 21.0355 16.8368 20.9382 16.7773C20.8404 16.7176 20.7239 16.6623 20.6237 16.6143C20.5702 16.5886 20.5154 16.5619 20.4577 16.5332C20.2998 16.4546 19.8381 16.2276 19.3796 16.0068C18.935 15.7928 18.4528 15.5647 18.2819 15.501C18.1493 15.4515 17.9172 15.3651 17.6677 15.3945C17.3665 15.43 17.1489 15.6109 16.9939 15.8447C16.8078 16.1196 16.2484 16.771 16.0505 17.001C16.0306 16.9937 16.0027 16.9848 15.9685 16.9678C15.903 16.9352 15.8194 16.8995 15.74 16.8652C15.3195 16.6838 14.5106 16.3348 13.5739 15.501L13.573 15.5C12.7252 14.7486 12.1371 13.8108 11.9528 13.4961C11.9656 13.4827 11.9806 13.4692 11.9987 13.4512V13.4502C12.1071 13.3422 12.2266 13.1977 12.3239 13.0801C12.3833 13.0083 12.4376 12.9418 12.489 12.8828C12.6731 12.6714 12.755 12.4986 12.8386 12.3252C12.8495 12.3026 12.8605 12.28 12.8718 12.2568C13.0447 11.9026 12.9819 11.587 12.8874 11.3623L12.8454 11.2715C12.8446 11.2698 12.842 11.2648 12.8376 11.2549C12.8317 11.2417 12.8247 11.2233 12.8151 11.2012C12.7962 11.157 12.771 11.0992 12.7419 11.0293C12.6836 10.8892 12.6088 10.7063 12.5261 10.5049C12.3156 9.99223 12.0511 9.34892 11.8923 8.99512V8.99414L11.78 8.77441C11.6594 8.56995 11.5137 8.4125 11.3327 8.30762C11.0949 8.16977 10.8618 8.16693 10.7526 8.16406H10.7536C10.5644 8.15781 10.3463 8.1582 10.1394 8.1582Z" fill="#323B48" stroke="#323B48" stroke-linejoin="round"/>
</svg>
